<?xml version="1.0" encoding="UTF-8" standalone="no"?>
<svg
   height="72"
   viewBox="0 0 78 72"
   width="78"
   version="1.1"
   id="svg1"
   sodipodi:docname="GettyImages-1207574548.svg"
   inkscape:version="1.3.1 (9b9bdc1480, 2023-11-25, custom)"
   xmlns:inkscape="http://www.inkscape.org/namespaces/inkscape"
   xmlns:sodipodi="http://sodipodi.sourceforge.net/DTD/sodipodi-0.dtd"
   xmlns="http://www.w3.org/2000/svg"
   xmlns:svg="http://www.w3.org/2000/svg">
  <defs
     id="defs1" />
  <sodipodi:namedview
     id="namedview1"
     pagecolor="#ffffff"
     bordercolor="#000000"
     borderopacity="0.25"
     inkscape:showpageshadow="2"
     inkscape:pageopacity="0.0"
     inkscape:pagecheckerboard="0"
     inkscape:deskcolor="#d1d1d1"
     inkscape:zoom="11.805556"
     inkscape:cx="39.007059"
     inkscape:cy="33.12"
     inkscape:window-width="2048"
     inkscape:window-height="1050"
     inkscape:window-x="0"
     inkscape:window-y="0"
     inkscape:window-maximized="1"
     inkscape:current-layer="svg1" />
  <path
     d="M 77.671254,31.265991 C 72.565864,28.316793 67.457872,25.372094 62.353,22.422 62.353107,16.526212 62.353213,10.630425 62.35332,4.734637 59.620186,3.156425 56.887053,1.578212 54.153919,0 49.048016,2.947927 43.942114,5.895855 38.836211,8.843782 33.730146,5.895855 28.624081,2.947927 23.518016,0 20.784739,1.578212 18.051461,3.156425 15.318184,4.734637 15.318123,10.630758 15.318061,16.526879 15.318,22.423 10.211675,25.370097 5.1060528,28.318412 0,31.265981 c 0,3.156127 0,6.312255 0,9.468382 5.1060553,2.947726 10.212111,5.895453 15.318166,8.843179 0,5.896048 0,11.792096 0,17.688145 2.733314,1.578004 5.466197,3.156756 8.199788,4.734281 C 28.623568,69.051285 33.730052,66.104105 38.836,63.156 c 5.105901,2.947758 10.211524,5.895997 15.317599,8.843454 2.733639,-1.577195 5.466368,-3.155965 8.199649,-4.73378 0,-5.895625 0,-11.791249 0,-17.686874 5.106002,-2.948156 10.212004,-5.896312 15.318006,-8.844468 0,-3.156114 0,-6.312227 0,-9.468341 z M 54.154,26.532 C 49.048282,23.583784 43.94231,20.636007 38.836751,17.687516 33.729887,20.634386 28.625183,23.585 23.518016,26.531346 21.325344,25.265897 19.132672,24.000449 16.94,22.735 22.045922,19.786816 27.151843,16.838631 32.257765,13.890447 27.152743,10.941407 22.045777,7.995733 16.94,5.048 19.132672,3.781609 21.325344,2.515217 23.518016,1.248826 28.624081,4.196573 33.730146,7.144321 38.836211,10.092068 43.942114,7.144321 49.048016,4.196573 54.153919,1.248826 56.345946,2.515217 58.537973,3.781609 60.73,5.048 55.624562,7.995357 50.519124,10.942714 45.413686,13.890071 50.519124,16.838381 55.624562,19.78669 60.73,22.735 c -2.192,1.265667 -4.384,2.531333 -6.576,3.797 z M 16.399412,21.797558 c 0,-5.271408 0,-10.542815 0,-15.814223 4.564988,2.635674 9.129975,5.271347 13.694963,7.907021 -4.564708,2.636218 -9.129736,5.271882 -13.694963,7.907202 z m 44.872656,-3.36e-4 c -4.56567,-2.634497 -9.130063,-5.271205 -13.694897,-7.907151 4.564966,-2.635546 9.129931,-5.271093 13.694897,-7.906639 0,5.271263 0,10.542527 0,15.81379 z M 24.058,43.907 c 0,-5.479333 0,-10.958667 0,-16.438 4.745667,-2.74 9.491333,-5.48 14.237,-8.22 2.11e-4,5.479386 4.21e-4,10.958771 6.32e-4,16.438157 C 33.549755,38.427105 28.803877,41.167052 24.058,43.907 Z m 29.55453,-10e-6 c -4.745174,-2.739945 -9.490349,-5.479889 -14.235523,-8.219834 -2e-6,-5.479385 -5e-6,-10.958771 -7e-6,-16.438156 4.745,2.74 9.49,5.48 14.235,8.22 1.77e-4,5.47933 3.53e-4,10.95866 5.3e-4,16.43799 z m 7.659427,-2.547727 c 5.106002,-2.947729 10.212004,-5.895457 15.318006,-8.843186 0,2.531368 0,5.062735 0,7.594103 -5.106002,2.947915 -10.212004,5.895829 -15.318006,8.843744 0,5.895959 0,11.791918 0,17.687877 -2.192478,1.265609 -4.384956,2.531219 -6.577434,3.796828 1.51e-4,-5.896103 3.01e-4,-11.792207 4.52e-4,-17.68831 C 49.588983,55.697879 44.482992,58.64544 39.377,61.593 c 0,-2.531 0,-5.062 0,-7.593 5.105718,-2.948201 10.211695,-5.895954 15.317523,-8.843963 C 54.694349,39.260358 54.694174,33.364679 54.694,27.469 c 2.192652,-1.266261 4.385305,-2.532522 6.577957,-3.798783 0,5.896349 0,11.792697 0,17.689046 z M 22.977513,70.438634 c -2.192713,-1.265955 -4.385426,-2.531911 -6.578139,-3.797867 0,-5.895615 0,-11.79123 0,-17.686845 -5.106069,-2.94797 -10.2121379,-5.89594 -15.3182068,-8.84391 0,-2.531776 0,-5.063553 0,-7.595329 5.1060689,2.94774 10.2121378,5.89548 15.3182068,8.84322 0,-5.895886 0,-11.791771 0,-17.687657 2.192542,1.266251 4.385084,2.532503 6.577626,3.798754 1.71e-4,5.895658 3.42e-4,11.791315 5.13e-4,17.686973 5.106104,2.947681 10.212016,5.895694 15.318045,8.843504 0,2.531465 0,5.06293 0,7.594395 -5.106015,-2.947808 -10.21203,-5.895615 -15.318045,-8.843423 0,5.896062 0,11.792124 0,17.688185 z M 62.353248,39.485249 c 0,-5.271677 0,-10.543355 0,-15.815032 4.565449,2.635727 9.130899,5.271455 13.696348,7.907182 -4.565449,2.63595 -9.130899,5.2719 -13.696348,7.90785 z m -47.035082,6e-6 c -4.5651,-2.6357 -9.1301992,-5.271399 -13.6952988,-7.907099 4.5650996,-2.635699 9.1301988,-5.271399 13.6952988,-7.907098 0,5.271399 0,10.542798 0,15.814197 z M 38.83621,53.0632 c -4.746366,-2.738321 -9.491174,-5.479343 -14.236936,-8.218711 4.745328,-2.740425 9.491164,-5.47997 14.236936,-8.219627 4.745242,2.740454 9.491066,5.4799 14.236728,8.219627 -4.745745,2.739277 -9.491125,5.479188 -14.236728,8.218711 z M 24.058867,70.439359 c 0,-5.271668 0,-10.543336 0,-15.815004 4.565432,2.635666 9.130865,5.271331 13.696297,7.906997 -4.565432,2.636002 -9.130865,5.272005 -13.696297,7.908007 z m 29.553779,-8.02e-4 c -4.565118,-2.635748 -9.130237,-5.271496 -13.695355,-7.907245 4.565128,-2.635626 9.130256,-5.271253 13.695384,-7.906879 -1e-5,5.271375 -1.9e-5,10.542749 -2.9e-5,15.814124 z"
     id="path1" />
</svg>
