<?xml version="1.0" encoding="UTF-8"?> <svg xmlns="http://www.w3.org/2000/svg" height="72" viewBox="0 0 78 72" width="78"><path d="m77.6712537 40.7340085-.2701834.1565392-14.5080703 8.3744523-.54.313.0003201 17.6873628-8.1994007 4.7346372-15.3177088-8.843782-15.3181945 8.843782-8.1998325-4.7346372-.0001836-17.6883628-.5405246-.3116774-14.7774754-8.5313032v-9.4683829l15.3181662-8.843179v-17.68814424l7.6588338-4.42231326.5409538-.31196777.2701311.15641567 15.0479151 8.6875521 14.776-8.531.5415992-.31245379.5413761.31207751 7.6582723 4.42170279v17.68687389l15.3180061 8.8444675zm-23.5172537 4.7339915-14.7769927 8.5323167-.5402566.3121674-.5411189-.3117362-11.1866318-6.4597479-3.5909839-2.0723459-6.5780161 3.7963459 15.3177646 8.8445534-.8107005.4689834-14.5070641 8.3734632 6.5780161 3.799174 15.3181945-8.8432423 15.3177088 8.8432423 6.5760806-3.799174-15.3163137-8.8420711 15.3163137-8.8449289zm-37.7545884 4.7344421v15.8142225l13.6949631-7.9070204-6.5763747-3.7976442zm44.8726569.0003355-4.4150685 2.5482224-9.2798285 5.3589289 13.694897 7.9066388zm-37.2140685-22.1097776v16.438l14.237 8.22.0006318-16.4381565zm29.5545301.0000104-14.2355228 8.2198331-.0000073 16.4381565 14.235-8.22zm7.6594268 2.5477261 15.3180061 8.8431863v-7.5941033l-15.3180061-8.8437434v-17.68787662l-6.5774338-3.79682883.0004522 17.68831055-15.3179753-8.8426812v7.593l2.163 1.249 13.1545231 7.5949634-.0005231 17.6870366 6.5779569 3.798783zm-38.2944437-29.07937076-6.5781392 3.79786729v17.68684517l-15.31820678 8.8439097v7.5953286l15.31820678-8.8432196v17.6876571l6.577626-3.798754.0005132-17.6869733.5410889-.3122844 14.7769555-8.5312194v-7.5943949l-15.3180444 8.8434225zm39.3757344 30.95338516v15.8150321l13.6963486-7.9071818zm-47.0350814-.0000056-13.695299 7.9070984 13.695299 7.9070984zm23.5180441-13.5779451-.5422103.3121998-13.6947255 7.9065113 5.5547255 3.2074887 8.6822103 5.0121378 4.9547897-2.8611378 9.2819379-5.3584887-.5399379-.3115113zm-14.7773434-17.3761588v15.8150039l13.6962974-7.90699748zm29.5537792.00080129-13.695355 7.90724493 13.6953842 7.90687958z" transform="matrix(1 0 0 -1 0 72)"></path></svg> 